<?xml version="1.0" encoding="UTF-8" standalone="no"?>
<svg
   xmlns:dc="http://purl.org/dc/elements/1.1/"
   xmlns:cc="http://creativecommons.org/ns#"
   xmlns:rdf="http://www.w3.org/1999/02/22-rdf-syntax-ns#"
   xmlns:svg="http://www.w3.org/2000/svg"
   xmlns="http://www.w3.org/2000/svg"
   xmlns:sodipodi="http://sodipodi.sourceforge.net/DTD/sodipodi-0.dtd"
   xmlns:inkscape="http://www.inkscape.org/namespaces/inkscape"
   version="1.1"
   id="Capa_1"
   x="0px"
   y="0px"
   width="163.861px"
   height="163.861px"
   viewBox="0 0 163.861 163.861"
   style="enable-background:new 0 0 163.861 163.861;"
   xml:space="preserve"
   sodipodi:docname="play2.svg"
   inkscape:version="1.0.1 (3bc2e813f5, 2020-09-07, custom)"><metadata
   id="metadata172"><rdf:RDF><cc:Work
       rdf:about=""><dc:format>image/svg+xml</dc:format><dc:type
         rdf:resource="http://purl.org/dc/dcmitype/StillImage" /><dc:title></dc:title></cc:Work></rdf:RDF></metadata><defs
   id="defs170" /><sodipodi:namedview
   pagecolor="#ffffff"
   bordercolor="#666666"
   borderopacity="1"
   objecttolerance="10"
   gridtolerance="10"
   guidetolerance="10"
   inkscape:pageopacity="0"
   inkscape:pageshadow="2"
   inkscape:window-width="1920"
   inkscape:window-height="1020"
   id="namedview168"
   showgrid="false"
   inkscape:zoom="5.6568543"
   inkscape:cx="44.304274"
   inkscape:cy="91.815102"
   inkscape:window-x="0"
   inkscape:window-y="0"
   inkscape:window-maximized="1"
   inkscape:current-layer="Capa_1" />
<g
   id="g135"
   style="fill:#5e5d5d;fill-opacity:0.3764706">
	<path
   d="M34.857,3.613C20.084-4.861,8.107,2.081,8.107,19.106v125.637c0,17.042,11.977,23.975,26.75,15.509L144.67,97.275   c14.778-8.477,14.778-22.211,0-30.686L34.857,3.613z"
   id="path133"
   style="fill:#5e5d5d;fill-opacity:0.3764706" />
</g>
<g
   id="g137">
</g>
<g
   id="g139">
</g>
<g
   id="g141">
</g>
<g
   id="g143">
</g>
<g
   id="g145">
</g>
<g
   id="g147">
</g>
<g
   id="g149">
</g>
<g
   id="g151">
</g>
<g
   id="g153">
</g>
<g
   id="g155">
</g>
<g
   id="g157">
</g>
<g
   id="g159">
</g>
<g
   id="g161">
</g>
<g
   id="g163">
</g>
<g
   id="g165">
</g>
<path
   style="fill:#5e5d5d;fill-opacity:0.376471;stroke-width:0.00461843"
   d="m 8.1781831,48.256442 c 6e-7,-0.152408 5.83e-4,-0.214089 0.00129,-0.137067 7.112e-4,0.07702 7.108e-4,0.201719 -1.1e-6,0.277106 -7.118e-4,0.07539 -0.00129,0.01237 -0.00129,-0.140039 z"
   id="path1017" /><path
   style="fill:#5e5d5d;fill-opacity:0.376471;stroke-width:0.00461843"
   d="m 8.1776293,48.152527 c 0,-0.02159 7.956e-4,-0.03042 0.00177,-0.01963 9.724e-4,0.0108 9.724e-4,0.02846 0,0.03926 -9.723e-4,0.0108 -0.00177,0.002 -0.00177,-0.01963 z"
   id="path1019" /></svg>
