<svg xmlns="http://www.w3.org/2000/svg" viewBox="0 0 1024 1024" role="img" class="svg-icon">
  <title>Search</title>
  <path d="M914.876 846.934l-226.894-226.92c93.082-124.27 83.508-301.176-29.516-414.14-61.952-61.97-143.146-92.954-224.366-92.954s-162.414 30.984-224.384 92.954c-123.922 123.922-123.922 324.812 0 448.768 61.97 61.934 143.146 92.936 224.366 92.936 66.918 0 133.624-21.368 189.772-63.402l226.952 226.936 64.07-64.178zm-480.794-190.038c-60.536 0-117.486-23.604-160.238-66.414-88.38-88.362-88.38-232.174-.018-320.538 42.828-42.812 99.72-66.398 160.298-66.398 60.536 0 117.486 23.56 160.256 66.398 88.32 88.38 88.32 232.174 0 320.538-42.87 42.81-99.762 66.414-160.298 66.414z" fill="#FFFFFF"></path>
</svg>