<svg xmlns="http://www.w3.org/2000/svg" viewBox="0 0 48 48" class="svg-icon"><title>Twitter</title><path d="M48 9.117a19.935 19.935 0 0 1-5.658 1.55 9.855 9.855 0 0 0 4.324-5.441 19.789 19.789 0 0 1-6.234 2.374 9.866 9.866 0 0 0-17.045 6.739 9.238 9.238 0 0 0 .252 2.234 27.932 27.932 0 0 1-20.287-10.267 9.555 9.555 0 0 0-1.333 4.937 9.815 9.815 0 0 0 4.36 8.18 9.851 9.851 0 0 1-4.469-1.223v.108a9.858 9.858 0 0 0 7.89 9.656 10.248 10.248 0 0 1-2.595.36 9.932 9.932 0 0 1-1.838-.18 9.946 9.946 0 0 0 9.189 6.847 19.745 19.745 0 0 1-12.213 4.216 16.691 16.691 0 0 1-2.343-.144 28 28 0 0 0 15.1 4.437c18.09 0 28-14.991 28-28 0-.432 0-.865-.036-1.261a20.192 20.192 0 0 0 4.936-5.122z"></path></svg>